<svg width="14" height="12" viewBox="0 0 14 12" fill="none" xmlns="http://www.w3.org/2000/svg">
<path fill-rule="evenodd" clip-rule="evenodd" d="M0.406576 5.625C1.63608 2.60546 4.17274 0.666668 6.99992 0.666668C9.8271 0.666668 12.3638 2.60546 13.5933 5.625C13.691 5.8651 13.691 6.1349 13.5933 6.37501C12.3638 9.39455 9.8271 11.3333 6.99992 11.3333C4.17274 11.3333 1.63608 9.39455 0.406576 6.37501C0.30881 6.1349 0.30881 5.8651 0.406576 5.625ZM6.99992 10.0998C9.27928 10.0998 11.3691 8.5245 12.4332 6C11.3691 3.4755 9.27928 1.90023 6.99992 1.90023C4.72055 1.90023 2.63075 3.4755 1.56664 6C2.63075 8.5245 4.72055 10.0998 6.99992 10.0998ZM6.99996 8.43084C5.68078 8.43084 4.61137 7.34251 4.61137 6C4.61137 4.65748 5.68078 3.56916 6.99996 3.56916C8.31914 3.56916 9.38855 4.65748 9.38855 6C9.38855 7.34251 8.31914 8.43084 6.99996 8.43084ZM6.9999 7.19727C7.64965 7.19727 8.17637 6.66123 8.17637 5.99999C8.17637 5.33876 7.64965 4.80272 6.9999 4.80272C6.35015 4.80272 5.82343 5.33876 5.82343 5.99999C5.82343 6.66123 6.35015 7.19727 6.9999 7.19727Z" fill="#92929D"/>
</svg>
